<svg width="12" height="13" viewBox="0 0 12 13" fill="none" xmlns="http://www.w3.org/2000/svg">
<path d="M2 1H4V2H3V3H2V1Z" fill="#FFF5FE"/>
<path d="M6 1H5V2H6V1Z" fill="#FFF5FE"/>
<path d="M11 0H12V1H11V0Z" fill="#686067"/>
<path d="M10 2V1H11V2H10Z" fill="#686067"/>
<path d="M9 3V2H10V3H9Z" fill="#686067"/>
<path d="M8 4V3H9V4H8Z" fill="#686067"/>
<path d="M7 5V4H8V5H7Z" fill="#686067"/>
<path d="M6 6V5H7V6H6Z" fill="#686067"/>
<path d="M5 7V6H6V7H5Z" fill="#686067"/>
<path d="M4 8V7H5V8H4Z" fill="#686067"/>
<path d="M4 9V8H3V9H2V10H1V11H0V12H1V11H2V10H3V9H4Z" fill="#686067"/>
<path d="M4 9H6V8H7V7H8V6H9V9H8V10H7V11H5V10H4V9Z" fill="#686067"/>
<path d="M1 0H3V1H2V2H1V0Z" fill="#C3BAC2"/>
<path d="M4 1H5V2H4V1Z" fill="#C3BAC2"/>
<path d="M6 1V2H9V1H6Z" fill="#C3BAC2"/>
<path d="M2 3H3V8H2V3Z" fill="#C3BAC2"/>
<path d="M9 4H10V7H9V4Z" fill="#C3BAC2"/>
<path d="M3 10H5V11H3V10Z" fill="#C3BAC2"/>
<path d="M5 11V12H6V11H5Z" fill="#C3BAC2"/>
<path d="M3 0H10V1H3V0Z" fill="#A49BA3"/>
<path d="M1 2H2V9H1V2Z" fill="#A49BA3"/>
<path d="M10 3H11V6H10V3Z" fill="#A49BA3"/>
<path d="M10 7H9V9H8V10H7V11H6V12H8V11H9V10H10V7Z" fill="#A49BA3"/>
<path d="M4 11H5V12H4V11Z" fill="#A49BA3"/>
<path d="M3 7V2H8V3H7V4H6V5H5V6H4V7H3Z" fill="#867D85"/>
<path d="M8 5H9V6H8V5Z" fill="#867D85"/>
<path d="M7 7V6H8V7H7Z" fill="#867D85"/>
<path d="M6 8V7H7V8H6Z" fill="#867D85"/>
<path d="M6 8V9H5V8H6Z" fill="#867D85"/>
<path d="M10 6H11V10H10V6Z" fill="#867D85"/>
<path d="M9 11V10H10V11H9Z" fill="#867D85"/>
<path d="M8 12H9V11H8V12Z" fill="#867D85"/>
<path d="M8 13V12H4V11H3V12H4V13H8Z" fill="#867D85"/>
</svg>
