<svg width="127" height="69" viewBox="0 0 127 69" fill="none" xmlns="http://www.w3.org/2000/svg">
<path fill-rule="evenodd" clip-rule="evenodd" d="M19 0V2H21V14H22V15H21V16H22V17H21V18H22V19H21V20H22V21H21V22H22V23H21V24H22V23H23V24H24V23H25V22H24V21H25V20H24V19H25V2H27V0H19ZM23 19V18H24V19H23ZM23 20H24V21H23V20ZM23 22H22V21H23V22ZM23 20H22V19H23V20ZM23 22V23H24V22H23ZM23 17H24V16H23V17ZM23 15H24V14H23V15Z" fill="#292329"/>
<path d="M37 0H45V2H43V15H42V14H41V17H43V19H42V18H41V19H40V18H39V17H40V16H39V15H40V14H39V6H41V4H39V2H37V0Z" fill="#292329"/>
<path d="M40 20V19H39V20H40Z" fill="#292329"/>
<path d="M41 20V19H42V20H41Z" fill="#292329"/>
<path fill-rule="evenodd" clip-rule="evenodd" d="M41 21V20H40V21H39V22H40V23H39V24H40V23H41V24H42V23H43V22H42V21H43V20H42V21H41ZM41 22H42V23H41V22ZM41 22V21H40V22H41Z" fill="#292329"/>
<path fill-rule="evenodd" clip-rule="evenodd" d="M47 0H57V2H59V19H58V18H57V19H56V18H55V17H56V16H55V15H56V14H55V5H53V19H52V18H51V19H50V18H49V17H50V16H49V15H50V14H49V2H47V0ZM51 14V15H52V14H51ZM57 14V15H58V14H57ZM52 17H51V16H52V17ZM58 17H57V16H58V17Z" fill="#292329"/>
<path d="M50 20H49V19H50V20Z" fill="#292329"/>
<path d="M51 20V19H52V20H51Z" fill="#292329"/>
<path fill-rule="evenodd" clip-rule="evenodd" d="M51 21V20H50V21H49V22H50V23H49V24H50V23H51V24H52V23H53V22H52V21H53V20H52V21H51ZM51 22H50V21H51V22ZM51 22V23H52V22H51Z" fill="#292329"/>
<path d="M56 20H55V19H56V20Z" fill="#292329"/>
<path d="M57 20V19H58V20H57Z" fill="#292329"/>
<path fill-rule="evenodd" clip-rule="evenodd" d="M57 21V20H56V21H55V22H56V23H55V24H56V23H57V24H58V23H59V22H58V21H59V20H58V21H57ZM57 22H56V21H57V22ZM57 22H58V23H57V22Z" fill="#292329"/>
<path fill-rule="evenodd" clip-rule="evenodd" d="M63 0H69V13H71V0H77V2H75V13H73V15H75V19H74V18H73V19H72V18H71V17H72V16H71V17H70V16H69V19H68V18H67V19H66V18H65V17H66V16H65V15H66V14H65V2H63V0ZM67 14V15H68V14H67ZM72 14H71V15H72V14ZM70 14H69V15H70V14ZM74 17H73V16H74V17ZM68 17H67V16H68V17Z" fill="#292329"/>
<path d="M66 20H65V19H66V20Z" fill="#292329"/>
<path d="M67 20V19H68V20H67Z" fill="#292329"/>
<path fill-rule="evenodd" clip-rule="evenodd" d="M67 21V20H66V21H65V22H66V23H65V24H66V23H67V24H68V23H69V22H68V21H69V20H68V21H67ZM67 22H66V21H67V22ZM67 22V23H68V22H67Z" fill="#292329"/>
<path d="M72 20H71V19H72V20Z" fill="#292329"/>
<path d="M73 20V19H74V20H73Z" fill="#292329"/>
<path fill-rule="evenodd" clip-rule="evenodd" d="M73 21V20H72V21H71V22H72V23H71V24H72V23H73V24H74V23H75V22H74V21H75V20H74V21H73ZM73 22H72V21H73V22ZM73 22H74V23H73V22Z" fill="#292329"/>
<path fill-rule="evenodd" clip-rule="evenodd" d="M79 0H93V2H91V13H89V11H87V4H85V15H88V14H87V13H89V19H88V18H87V17H88V16H87V17H86V16H85V19H84V18H83V19H82V18H81V17H82V16H81V15H82V14H81V2H79V0ZM83 14V15H84V14H83ZM84 17H83V16H84V17Z" fill="#292329"/>
<path d="M82 20H81V19H82V20Z" fill="#292329"/>
<path d="M83 20V19H84V20H83Z" fill="#292329"/>
<path fill-rule="evenodd" clip-rule="evenodd" d="M83 21V20H82V21H81V22H82V23H81V24H82V23H83V24H84V23H85V22H84V21H85V20H84V21H83ZM83 22H82V21H83V22ZM83 22V23H84V22H83Z" fill="#292329"/>
<path fill-rule="evenodd" clip-rule="evenodd" d="M95 0H105V2H107V15H109V16H107V19H106V18H105V19H104V18H103V17H104V16H103V15H104V14H103V5H101V19H100V18H99V19H98V18H97V17H98V16H97V15H98V14H97V2H95V0ZM99 14V15H100V14H99ZM105 14V15H106V14H105ZM100 16V17H99V16H100ZM106 16V17H105V16H106Z" fill="#292329"/>
<path d="M98 20V19H97V20H98Z" fill="#292329"/>
<path d="M99 20V19H100V20H99Z" fill="#292329"/>
<path fill-rule="evenodd" clip-rule="evenodd" d="M99 21V20H98V21H97V22H98V23H97V24H98V23H99V24H100V23H101V22H100V21H101V20H100V21H99ZM99 22H98V21H99V22ZM99 22V23H100V22H99Z" fill="#292329"/>
<path d="M104 20V19H103V20H104Z" fill="#292329"/>
<path d="M105 20V19H106V20H105Z" fill="#292329"/>
<path fill-rule="evenodd" clip-rule="evenodd" d="M105 21V20H104V21H103V22H104V23H103V24H104V23H105V24H106V23H107V22H106V21H107V20H106V21H105ZM105 22H104V21H105V22ZM105 22H106V23H105V22Z" fill="#292329"/>
<path d="M28 22H29V23H28V22Z" fill="#292329"/>
<path d="M28 23V24H27V23H28Z" fill="#292329"/>
<path d="M30 23V24H29V23H30Z" fill="#292329"/>
<path d="M31 23H30V22H31V23Z" fill="#292329"/>
<path d="M32 23V24H31V23H32Z" fill="#292329"/>
<path d="M33 23H32V22H33V23Z" fill="#292329"/>
<path d="M34 23V24H33V23H34Z" fill="#292329"/>
<path d="M34 23V22H35V23H34Z" fill="#292329"/>
<path d="M21 25H22V26H21V25Z" fill="#292329"/>
<path d="M24 25H23V26H24V25Z" fill="#292329"/>
<path d="M29 25H30V26H29V25Z" fill="#292329"/>
<path d="M32 25H31V26H32V25Z" fill="#292329"/>
<path d="M39 25H40V26H39V25Z" fill="#292329"/>
<path d="M42 25H41V26H42V25Z" fill="#292329"/>
<path d="M49 25H50V26H49V25Z" fill="#292329"/>
<path d="M52 25H51V26H52V25Z" fill="#292329"/>
<path d="M55 25H56V26H55V25Z" fill="#292329"/>
<path d="M58 25H57V26H58V25Z" fill="#292329"/>
<path d="M65 25H66V26H65V25Z" fill="#292329"/>
<path d="M68 25H67V26H68V25Z" fill="#292329"/>
<path d="M71 25H72V26H71V25Z" fill="#292329"/>
<path d="M74 25H73V26H74V25Z" fill="#292329"/>
<path d="M81 25H82V26H81V25Z" fill="#292329"/>
<path d="M84 25H83V26H84V25Z" fill="#292329"/>
<path d="M87 25H88V26H87V25Z" fill="#292329"/>
<path d="M90 25H89V26H90V25Z" fill="#292329"/>
<path d="M97 25H98V26H97V25Z" fill="#292329"/>
<path d="M100 25H99V26H100V25Z" fill="#292329"/>
<path d="M103 25H104V26H103V25Z" fill="#292329"/>
<path d="M106 25H105V26H106V25Z" fill="#292329"/>
<path d="M89 21H90V22H89V21Z" fill="#292329"/>
<path d="M90 23V22H91V23H90Z" fill="#292329"/>
<path d="M90 23H89V24H90V23Z" fill="#292329"/>
<path d="M87 23H88V24H87V23Z" fill="#292329"/>
<path d="M22 14H21V15H22V14Z" fill="#423D42"/>
<path d="M24 14H23V15H24V14Z" fill="#423D42"/>
<path d="M39 14H40V15H39V14Z" fill="#423D42"/>
<path d="M42 14H41V15H42V14Z" fill="#423D42"/>
<path d="M49 14H50V15H49V14Z" fill="#423D42"/>
<path d="M52 14H51V15H52V14Z" fill="#423D42"/>
<path d="M55 14H56V15H55V14Z" fill="#423D42"/>
<path d="M58 14H57V15H58V14Z" fill="#423D42"/>
<path d="M65 14H66V15H65V14Z" fill="#423D42"/>
<path d="M68 14H67V15H68V14Z" fill="#423D42"/>
<path d="M69 14H70V15H69V14Z" fill="#423D42"/>
<path d="M72 14H71V15H72V14Z" fill="#423D42"/>
<path d="M81 14H82V15H81V14Z" fill="#423D42"/>
<path d="M84 14H83V15H84V14Z" fill="#423D42"/>
<path d="M87 14H88V15H87V14Z" fill="#423D42"/>
<path d="M98 14H97V15H98V14Z" fill="#423D42"/>
<path d="M99 14H100V15H99V14Z" fill="#423D42"/>
<path d="M104 14H103V15H104V14Z" fill="#423D42"/>
<path d="M105 14H106V15H105V14Z" fill="#423D42"/>
<path d="M22 16H21V17H22V16Z" fill="#423D42"/>
<path d="M23 16H24V17H23V16Z" fill="#423D42"/>
<path d="M40 16H39V17H40V16Z" fill="#423D42"/>
<path d="M49 16H50V17H49V16Z" fill="#423D42"/>
<path d="M52 16H51V17H52V16Z" fill="#423D42"/>
<path d="M55 16H56V17H55V16Z" fill="#423D42"/>
<path d="M58 16H57V17H58V16Z" fill="#423D42"/>
<path d="M65 16H66V17H65V16Z" fill="#423D42"/>
<path d="M68 16H67V17H68V16Z" fill="#423D42"/>
<path d="M69 16H70V17H69V16Z" fill="#423D42"/>
<path d="M72 16H71V17H72V16Z" fill="#423D42"/>
<path d="M73 16H74V17H73V16Z" fill="#423D42"/>
<path d="M82 16H81V17H82V16Z" fill="#423D42"/>
<path d="M83 16H84V17H83V16Z" fill="#423D42"/>
<path d="M86 16H85V17H86V16Z" fill="#423D42"/>
<path d="M87 16H88V17H87V16Z" fill="#423D42"/>
<path d="M98 16H97V17H98V16Z" fill="#423D42"/>
<path d="M99 16H100V17H99V16Z" fill="#423D42"/>
<path d="M104 16H103V17H104V16Z" fill="#423D42"/>
<path d="M105 16H106V17H105V16Z" fill="#423D42"/>
<path d="M107 16V17H109V16H107Z" fill="#423D42"/>
<path fill-rule="evenodd" clip-rule="evenodd" d="M22 18H21V19H22V20H21V21H22V22H21V23H22V24H21V25H22V26H21V30H19V32H31V30H33V23H34V24H35V23H34V22H33V23H32V22H31V23H30V22H29V23H28V22H27V23H28V24H29V25H30V26H29V28H25V23H24V22H25V21H24V20H25V19H24V18H23V19H22V18ZM23 20H22V21H23V22H22V23H23V24H24V23H23V22H24V21H23V20ZM23 20H24V19H23V20ZM24 26V25H23V26H24ZM31 26H32V25H31V26ZM29 24H30V23H29V24ZM31 23V24H32V23H31Z" fill="#423D42"/>
<path fill-rule="evenodd" clip-rule="evenodd" d="M40 18H39V19H40V20H39V21H40V22H39V23H40V24H39V25H40V26H39V30H37V32H45V30H43V23H42V22H43V21H42V20H43V19H42V18H41V19H40V18ZM41 20H40V21H41V22H40V23H41V24H42V23H41V22H42V21H41V20ZM41 20H42V19H41V20ZM42 26V25H41V26H42Z" fill="#423D42"/>
<path fill-rule="evenodd" clip-rule="evenodd" d="M50 18H49V19H50V20H49V21H50V22H49V23H50V24H49V25H50V26H49V30H47V32H53V23H52V22H53V21H52V20H53V19H52V18H51V19H50V18ZM51 20H50V21H51V22H50V23H51V24H52V23H51V22H52V21H51V20ZM51 20H52V19H51V20ZM52 26V25H51V26H52Z" fill="#423D42"/>
<path fill-rule="evenodd" clip-rule="evenodd" d="M56 18H55V19H56V20H55V21H56V22H55V23H56V24H55V25H56V26H55V32H61V30H59V23H58V22H59V21H58V20H59V19H58V18H57V19H56V18ZM57 20H56V21H57V22H56V23H57V24H58V23H57V22H58V21H57V20ZM57 20H58V19H57V20ZM58 26V25H57V26H58Z" fill="#423D42"/>
<path fill-rule="evenodd" clip-rule="evenodd" d="M66 18H65V19H66V20H65V21H66V22H65V23H66V24H65V25H66V26H65V30H63V32H69V23H68V22H69V21H68V20H69V19H68V18H67V19H66V18ZM67 20H66V21H67V22H66V23H67V24H68V23H67V22H68V21H67V20ZM67 20H68V19H67V20ZM68 26V25H67V26H68Z" fill="#423D42"/>
<path fill-rule="evenodd" clip-rule="evenodd" d="M72 18H71V19H72V20H71V21H72V22H71V23H72V24H71V25H72V26H71V32H77V30H75V23H74V22H75V21H74V20H75V19H74V18H73V19H72V18ZM73 20H72V21H73V22H72V23H73V24H74V23H73V22H74V21H73V20ZM73 20H74V19H73V20ZM74 26V25H73V26H74Z" fill="#423D42"/>
<path fill-rule="evenodd" clip-rule="evenodd" d="M82 18H81V19H82V20H81V21H82V22H81V23H82V24H81V25H82V26H81V30H79V32H93V30H91V23H90V22H91V21H90V22H89V23H88V24H87V25H88V26H87V28H85V23H84V22H85V21H84V20H85V19H84V18H83V19H82V18ZM83 20H82V21H83V22H82V23H83V24H84V23H83V22H84V21H83V20ZM83 20H84V19H83V20ZM84 26V25H83V26H84ZM89 23V24H90V23H89ZM90 26V25H89V26H90Z" fill="#423D42"/>
<path d="M88 18H87V19H88V18Z" fill="#423D42"/>
<path d="M97 18H98V19H97V18Z" fill="#423D42"/>
<path fill-rule="evenodd" clip-rule="evenodd" d="M99 19H98V20H97V21H98V22H97V23H98V24H97V25H98V26H97V30H95V32H105V30H107V23H106V22H107V21H106V20H107V19H106V18H105V19H104V18H103V19H104V20H103V21H104V22H103V23H104V24H103V25H104V26H103V28H101V23H100V22H101V21H100V20H101V19H100V18H99V19ZM99 20H98V21H99V22H98V23H99V24H100V23H99V22H100V21H99V20ZM99 20H100V19H99V20ZM100 26V25H99V26H100ZM105 23V24H106V23H105ZM105 22H106V21H105V20H106V19H105V20H104V21H105V22ZM105 22H104V23H105V22ZM106 26V25H105V26H106Z" fill="#423D42"/>
<path fill-rule="evenodd" clip-rule="evenodd" d="M6 37V39H4V45H2V57H3V58H2V59H3V60H4V59H5V60H6V59H5V58H6V57H7V56H8V57H9V58H8V59H9V58H10V59H11V60H12V59H13V60H14V59H13V58H14V57H13V56H14V55H13V54H14V53H13V52H14V51H12V41H10V39H12V37H6ZM12 52H11V53H12V52ZM10 49H8V43H6V52H5V53H8V54H7V55H10V49ZM4 52H3V53H4V52ZM12 57H13V58H12V57ZM11 57V56H12V57H11ZM11 58H10V57H11V58ZM10 57V56H9V57H10ZM11 58V59H12V58H11ZM5 57H6V56H5V57ZM4 57V56H3V57H4ZM4 58H5V57H4V58ZM4 58H3V59H4V58ZM12 55V54H11V55H12ZM6 55V54H5V55H6ZM4 55V54H3V55H4Z" fill="#5D565C"/>
<path fill-rule="evenodd" clip-rule="evenodd" d="M20 37H26V39H28V49H26V47H24V41H22V49H24V51H28V52H27V53H28V54H27V55H28V56H27V57H26V56H25V57H24V52H23V53H22V51H20V49H18V39H20V37ZM25 52V53H26V52H25ZM26 54V55H25V54H26Z" fill="#5D565C"/>
<path d="M25 58V57H26V58H25Z" fill="#5D565C"/>
<path d="M25 59H24V58H25V59Z" fill="#5D565C"/>
<path d="M26 59V60H25V59H26Z" fill="#5D565C"/>
<path d="M27 59H26V58H27V59Z" fill="#5D565C"/>
<path d="M27 59V60H28V59H27Z" fill="#5D565C"/>
<path d="M27 58H28V57H27V58Z" fill="#5D565C"/>
<path fill-rule="evenodd" clip-rule="evenodd" d="M34 37H40V39H42V49H38V42H36V52H35V53H36V54H35V55H36V56H35V57H34V56H33V57H32V39H34V37ZM33 52V53H34V52H33ZM34 55V54H33V55H34Z" fill="#5D565C"/>
<path d="M33 58V57H34V58H33Z" fill="#5D565C"/>
<path d="M33 59V58H32V59H33Z" fill="#5D565C"/>
<path d="M34 59V58H35V59H34Z" fill="#5D565C"/>
<path d="M35 59H36V60H35V59Z" fill="#5D565C"/>
<path d="M34 59H33V60H34V59Z" fill="#5D565C"/>
<path d="M35 58V57H36V58H35Z" fill="#5D565C"/>
<path fill-rule="evenodd" clip-rule="evenodd" d="M44 37H58V39H56V50H54V48H52V41H50V52H49V53H50V52H51V53H52V50H54V52H53V53H54V54H53V55H54V56H52V54H49V55H50V56H49V57H48V56H47V57H46V39H44V37ZM48 52H47V53H48V52ZM47 54V55H48V54H47Z" fill="#5D565C"/>
<path d="M47 58V57H48V58H47Z" fill="#5D565C"/>
<path d="M47 59V58H46V59H47Z" fill="#5D565C"/>
<path d="M48 59V58H49V59H48Z" fill="#5D565C"/>
<path d="M49 59H50V60H49V59Z" fill="#5D565C"/>
<path d="M48 59H47V60H48V59Z" fill="#5D565C"/>
<path d="M49 58V57H50V58H49Z" fill="#5D565C"/>
<path fill-rule="evenodd" clip-rule="evenodd" d="M60 37H70V39H72V52H71V53H72V54H71V55H72V56H71V57H70V56H69V57H68V42H66V52H65V53H66V54H65V55H66V56H65V57H64V56H63V57H62V39H60V37ZM63 52V53H64V52H63ZM69 52V53H70V52H69ZM64 54V55H63V54H64ZM70 55V54H69V55H70Z" fill="#5D565C"/>
<path d="M63 58V57H64V58H63Z" fill="#5D565C"/>
<path d="M63 59H62V58H63V59Z" fill="#5D565C"/>
<path d="M64 59V60H63V59H64Z" fill="#5D565C"/>
<path d="M65 59H64V58H65V59Z" fill="#5D565C"/>
<path d="M65 59V60H66V59H65Z" fill="#5D565C"/>
<path d="M65 58H66V57H65V58Z" fill="#5D565C"/>
<path d="M69 58V57H70V58H69Z" fill="#5D565C"/>
<path d="M69 59V58H68V59H69Z" fill="#5D565C"/>
<path d="M70 59V58H71V59H70Z" fill="#5D565C"/>
<path d="M71 59H72V60H71V59Z" fill="#5D565C"/>
<path d="M70 59H69V60H70V59Z" fill="#5D565C"/>
<path d="M71 58V57H72V58H71Z" fill="#5D565C"/>
<path fill-rule="evenodd" clip-rule="evenodd" d="M78 37H84V39H86V49H84V47H82V41H80V49H82V51H86V52H85V53H86V54H85V55H86V56H85V57H84V56H83V57H82V52H81V53H80V51H78V49H76V39H78V37ZM84 52H83V53H84V52ZM83 54V55H84V54H83Z" fill="#5D565C"/>
<path d="M83 58V57H84V58H83Z" fill="#5D565C"/>
<path d="M83 59V58H82V59H83Z" fill="#5D565C"/>
<path d="M84 59V58H85V59H84Z" fill="#5D565C"/>
<path d="M85 59H86V60H85V59Z" fill="#5D565C"/>
<path d="M84 59H83V60H84V59Z" fill="#5D565C"/>
<path d="M85 58V57H86V58H85Z" fill="#5D565C"/>
<path d="M88 37H96V39H94V52H91V53H92V54H91V55H92V54H93V55H94V56H93V57H92V56H91V57H90V43H92V41H90V39H88V37Z" fill="#5D565C"/>
<path d="M91 58V57H92V58H91Z" fill="#5D565C"/>
<path d="M91 59H90V58H91V59Z" fill="#5D565C"/>
<path d="M92 59V60H91V59H92Z" fill="#5D565C"/>
<path d="M93 59H92V58H93V59Z" fill="#5D565C"/>
<path d="M93 59V60H94V59H93Z" fill="#5D565C"/>
<path d="M93 58H94V57H93V58Z" fill="#5D565C"/>
<path fill-rule="evenodd" clip-rule="evenodd" d="M102 37H112V39H110V52H109V53H110V54H109V55H110V56H109V57H108V56H107V57H106V42H104V52H103V53H104V54H103V55H104V56H103V57H102V56H101V57H100V39H102V37ZM102 52H101V53H102V52ZM107 52V53H108V52H107ZM101 54V55H102V54H101ZM107 55V54H108V55H107Z" fill="#5D565C"/>
<path d="M101 58V57H102V58H101Z" fill="#5D565C"/>
<path d="M101 59V58H100V59H101Z" fill="#5D565C"/>
<path d="M102 59V58H103V59H102Z" fill="#5D565C"/>
<path d="M103 59H104V60H103V59Z" fill="#5D565C"/>
<path d="M102 59H101V60H102V59Z" fill="#5D565C"/>
<path d="M103 58V57H104V58H103Z" fill="#5D565C"/>
<path d="M107 58V57H108V58H107Z" fill="#5D565C"/>
<path d="M107 59H106V58H107V59Z" fill="#5D565C"/>
<path d="M108 59V60H107V59H108Z" fill="#5D565C"/>
<path d="M109 59H108V58H109V59Z" fill="#5D565C"/>
<path d="M109 59V60H110V59H109Z" fill="#5D565C"/>
<path d="M109 58H110V57H109V58Z" fill="#5D565C"/>
<path fill-rule="evenodd" clip-rule="evenodd" d="M114 37H124V39H126V52H125V53H126V54H125V55H126V56H125V57H124V56H123V57H122V42H120V52H119V53H120V54H119V55H120V56H119V57H118V56H117V57H116V39H114V37ZM118 52H117V53H118V52ZM123 52V53H124V52H123ZM117 54H118V55H117V54ZM124 54H123V55H124V54Z" fill="#5D565C"/>
<path d="M117 58V57H118V58H117Z" fill="#5D565C"/>
<path d="M117 59V58H116V59H117Z" fill="#5D565C"/>
<path d="M118 59V58H119V59H118Z" fill="#5D565C"/>
<path d="M119 59H120V60H119V59Z" fill="#5D565C"/>
<path d="M118 59H117V60H118V59Z" fill="#5D565C"/>
<path d="M119 58V57H120V58H119Z" fill="#5D565C"/>
<path d="M123 58V57H124V58H123Z" fill="#5D565C"/>
<path d="M123 59H122V58H123V59Z" fill="#5D565C"/>
<path d="M124 59V60H123V59H124Z" fill="#5D565C"/>
<path d="M125 59H124V58H125V59Z" fill="#5D565C"/>
<path d="M125 59V60H126V59H125Z" fill="#5D565C"/>
<path d="M125 58H126V57H125V58Z" fill="#5D565C"/>
<path fill-rule="evenodd" clip-rule="evenodd" d="M18 53V57H19V58H18V59H19V60H20V59H21V60H22V59H21V58H22V57H21V56H22V55H19V54H20V53H18ZM20 57V56H19V57H20ZM20 58H19V59H20V58ZM20 58V57H21V58H20Z" fill="#5D565C"/>
<path fill-rule="evenodd" clip-rule="evenodd" d="M76 57H77V58H76V59H77V60H78V59H79V60H80V59H79V58H80V57H79V56H80V55H77V54H78V53H76V57ZM78 57V56H77V57H78ZM78 58H77V59H78V58ZM78 58V57H79V58H78Z" fill="#5D565C"/>
<path d="M42 54H43V55H44V56H42V54Z" fill="#5D565C"/>
<path d="M40 56H41V57H40V56Z" fill="#5D565C"/>
<path d="M41 58V57H42V58H41Z" fill="#5D565C"/>
<path d="M41 59V58H40V59H39V60H40V59H41Z" fill="#5D565C"/>
<path d="M41 59H42V60H41V59Z" fill="#5D565C"/>
<path d="M55 58H54V59H55V60H56V59H55V58Z" fill="#5D565C"/>
<path d="M3 61H4V62H3V61Z" fill="#5D565C"/>
<path d="M5 61H6V62H5V61Z" fill="#5D565C"/>
<path d="M11 61H12V62H11V61Z" fill="#5D565C"/>
<path d="M13 61H14V62H13V61Z" fill="#5D565C"/>
<path d="M19 61H20V62H19V61Z" fill="#5D565C"/>
<path d="M21 61H22V62H21V61Z" fill="#5D565C"/>
<path d="M25 61H26V62H25V61Z" fill="#5D565C"/>
<path d="M27 61H28V62H27V61Z" fill="#5D565C"/>
<path d="M33 61H34V62H33V61Z" fill="#5D565C"/>
<path d="M35 61H36V62H35V61Z" fill="#5D565C"/>
<path d="M39 61H40V62H39V61Z" fill="#5D565C"/>
<path d="M41 61H42V62H41V61Z" fill="#5D565C"/>
<path d="M47 61H48V62H47V61Z" fill="#5D565C"/>
<path d="M49 61H50V62H49V61Z" fill="#5D565C"/>
<path d="M53 61H54V62H53V61Z" fill="#5D565C"/>
<path d="M55 61H56V62H55V61Z" fill="#5D565C"/>
<path d="M63 61H64V62H63V61Z" fill="#5D565C"/>
<path d="M65 61H66V62H65V61Z" fill="#5D565C"/>
<path d="M69 61H70V62H69V61Z" fill="#5D565C"/>
<path d="M71 61H72V62H71V61Z" fill="#5D565C"/>
<path d="M3 63H4V64H3V63Z" fill="#5D565C"/>
<path d="M5 63H6V64H5V63Z" fill="#5D565C"/>
<path d="M11 63H12V64H11V63Z" fill="#5D565C"/>
<path d="M13 63H14V64H13V63Z" fill="#5D565C"/>
<path d="M19 63H20V64H19V63Z" fill="#5D565C"/>
<path d="M21 63H22V64H21V63Z" fill="#5D565C"/>
<path d="M25 63H26V64H25V63Z" fill="#5D565C"/>
<path d="M27 63H28V64H27V63Z" fill="#5D565C"/>
<path d="M33 63H34V64H33V63Z" fill="#5D565C"/>
<path d="M35 63H36V64H35V63Z" fill="#5D565C"/>
<path d="M39 63H40V64H39V63Z" fill="#5D565C"/>
<path d="M41 63H42V64H41V63Z" fill="#5D565C"/>
<path d="M47 63H48V64H47V63Z" fill="#5D565C"/>
<path d="M49 63H50V64H49V63Z" fill="#5D565C"/>
<path d="M53 63H54V64H53V63Z" fill="#5D565C"/>
<path d="M55 63H56V64H55V63Z" fill="#5D565C"/>
<path d="M63 63H64V64H63V63Z" fill="#5D565C"/>
<path d="M65 63H66V64H65V63Z" fill="#5D565C"/>
<path d="M69 63H70V64H69V63Z" fill="#5D565C"/>
<path d="M71 63H72V64H71V63Z" fill="#5D565C"/>
<path d="M78 61H77V62H78V61Z" fill="#5D565C"/>
<path d="M80 61H79V62H80V61Z" fill="#5D565C"/>
<path d="M84 61H83V62H84V61Z" fill="#5D565C"/>
<path d="M86 61H85V62H86V61Z" fill="#5D565C"/>
<path d="M92 61H91V62H92V61Z" fill="#5D565C"/>
<path d="M94 61H93V62H94V61Z" fill="#5D565C"/>
<path d="M102 61H101V62H102V61Z" fill="#5D565C"/>
<path d="M104 61H103V62H104V61Z" fill="#5D565C"/>
<path d="M108 61H107V62H108V61Z" fill="#5D565C"/>
<path d="M110 61H109V62H110V61Z" fill="#5D565C"/>
<path d="M118 61H117V62H118V61Z" fill="#5D565C"/>
<path d="M120 61H119V62H120V61Z" fill="#5D565C"/>
<path d="M124 61H123V62H124V61Z" fill="#5D565C"/>
<path d="M126 61H125V62H126V61Z" fill="#5D565C"/>
<path d="M77 63H78V64H77V63Z" fill="#5D565C"/>
<path d="M79 63H80V64H79V63Z" fill="#5D565C"/>
<path d="M83 63H84V64H83V63Z" fill="#5D565C"/>
<path d="M85 63H86V64H85V63Z" fill="#5D565C"/>
<path d="M91 63H92V64H91V63Z" fill="#5D565C"/>
<path d="M93 63H94V64H93V63Z" fill="#5D565C"/>
<path d="M101 63H102V64H101V63Z" fill="#5D565C"/>
<path d="M103 63H104V64H103V63Z" fill="#5D565C"/>
<path d="M107 63H108V64H107V63Z" fill="#5D565C"/>
<path d="M109 63H110V64H109V63Z" fill="#5D565C"/>
<path d="M117 63H118V64H117V63Z" fill="#5D565C"/>
<path d="M119 63H120V64H119V63Z" fill="#5D565C"/>
<path d="M123 63H124V64H123V63Z" fill="#5D565C"/>
<path d="M125 63H126V64H125V63Z" fill="#5D565C"/>
<path d="M3 52H4V53H3V52Z" fill="#776E76"/>
<path d="M5 52H6V53H5V52Z" fill="#776E76"/>
<path d="M12 52H11V53H12V52Z" fill="#776E76"/>
<path d="M13 52H14V53H13V52Z" fill="#776E76"/>
<path d="M4 54H3V55H4V54Z" fill="#776E76"/>
<path d="M5 54H6V55H5V54Z" fill="#776E76"/>
<path d="M8 54H7V55H8V54Z" fill="#776E76"/>
<path d="M11 54H12V55H11V54Z" fill="#776E76"/>
<path d="M14 54H13V55H14V54Z" fill="#776E76"/>
<path d="M3 56H4V57H3V56Z" fill="#776E76"/>
<path d="M3 58H2V57H3V58Z" fill="#776E76"/>
<path d="M4 58V57H5V58H4Z" fill="#776E76"/>
<path fill-rule="evenodd" clip-rule="evenodd" d="M4 59V58H3V59H2V67H0V69H6V64H5V63H6V62H5V61H6V60H5V59H6V58H5V59H4ZM4 64V63H3V64H4ZM4 59H3V60H4V59ZM4 62H3V61H4V62Z" fill="#776E76"/>
<path d="M5 57V56H6V57H5Z" fill="#776E76"/>
<path d="M7 56H8V57H7V56Z" fill="#776E76"/>
<path d="M11 58V59H12V58H11Z" fill="#776E76"/>
<path fill-rule="evenodd" clip-rule="evenodd" d="M9 57H8V58H9V59H10V67H8V69H16V67H14V64H13V63H14V62H13V61H14V60H13V59H14V58H13V57H14V56H13V57H12V56H11V57H10V56H9V57ZM10 58V59H11V60H12V59H13V58H12V57H11V58H10ZM10 58H9V57H10V58ZM12 64V63H11V64H12ZM12 62H11V61H12V62Z" fill="#776E76"/>
<path d="M24 52H23V53H24V52Z" fill="#776E76"/>
<path d="M26 52H25V53H26V52Z" fill="#776E76"/>
<path d="M27 52H28V53H27V52Z" fill="#776E76"/>
<path d="M20 54H19V55H20V54Z" fill="#776E76"/>
<path d="M25 54H26V55H25V54Z" fill="#776E76"/>
<path d="M28 54H27V55H28V54Z" fill="#776E76"/>
<path d="M19 56H20V57H19V56Z" fill="#776E76"/>
<path d="M19 58H18V57H19V58Z" fill="#776E76"/>
<path d="M20 58V57H21V58H20Z" fill="#776E76"/>
<path fill-rule="evenodd" clip-rule="evenodd" d="M20 59V58H19V59H18V67H20V69H26V67H28V64H27V63H28V62H27V61H28V60H27V59H28V58H27V57H28V56H27V57H26V56H25V57H24V58H25V59H24V66H22V64H21V63H22V62H21V61H22V60H21V59H22V58H21V59H20ZM20 64V63H19V64H20ZM26 59H27V58H26V57H25V58H26V59ZM26 59V60H25V59H26ZM26 64V63H25V64H26ZM20 59H19V60H20V59ZM20 62H19V61H20V62ZM26 62H25V61H26V62Z" fill="#776E76"/>
<path d="M21 57V56H22V57H21Z" fill="#776E76"/>
<path d="M33 52H34V53H33V52Z" fill="#776E76"/>
<path d="M35 52H36V53H35V52Z" fill="#776E76"/>
<path d="M34 54H33V55H34V54Z" fill="#776E76"/>
<path d="M35 54H36V55H35V54Z" fill="#776E76"/>
<path d="M44 54H43V55H44V54Z" fill="#776E76"/>
<path d="M33 56H34V57H33V56Z" fill="#776E76"/>
<path d="M33 58H32V57H33V58Z" fill="#776E76"/>
<path d="M34 58V57H35V58H34Z" fill="#776E76"/>
<path fill-rule="evenodd" clip-rule="evenodd" d="M34 59V58H33V59H32V67H30V69H40V67H42V64H41V63H42V62H41V61H42V60H41V59H42V58H41V57H42V56H41V57H40V58H41V59H40V60H39V59H38V65H36V64H35V63H36V62H35V61H36V60H35V59H36V58H35V59H34ZM34 64V63H33V64H34ZM40 64V63H39V64H40ZM34 59H33V60H34V59ZM33 62H34V61H33V62ZM39 62H40V61H39V62Z" fill="#776E76"/>
<path d="M35 57V56H36V57H35Z" fill="#776E76"/>
<path d="M47 52H48V53H47V52Z" fill="#776E76"/>
<path d="M49 52H50V53H49V52Z" fill="#776E76"/>
<path d="M52 52H51V53H52V52Z" fill="#776E76"/>
<path d="M53 52H54V53H53V52Z" fill="#776E76"/>
<path d="M48 54H47V55H48V54Z" fill="#776E76"/>
<path d="M49 54H50V55H49V54Z" fill="#776E76"/>
<path d="M54 54H53V55H54V54Z" fill="#776E76"/>
<path d="M47 56H48V57H47V56Z" fill="#776E76"/>
<path d="M47 58H46V57H47V58Z" fill="#776E76"/>
<path d="M48 58V57H49V58H48Z" fill="#776E76"/>
<path fill-rule="evenodd" clip-rule="evenodd" d="M48 59V58H47V59H46V67H44V69H58V67H56V64H55V63H56V62H55V61H56V60H55V59H56V58H55V59H54V60H52V65H50V64H49V63H50V62H49V61H50V60H49V59H50V58H49V59H48ZM48 64V63H47V64H48ZM54 64V63H53V64H54ZM48 59V60H47V59H48ZM48 62H47V61H48V62ZM54 62H53V61H54V62Z" fill="#776E76"/>
<path d="M49 57V56H50V57H49Z" fill="#776E76"/>
<path d="M63 52H64V53H63V52Z" fill="#776E76"/>
<path d="M65 52H66V53H65V52Z" fill="#776E76"/>
<path d="M70 52H69V53H70V52Z" fill="#776E76"/>
<path d="M71 52H72V53H71V52Z" fill="#776E76"/>
<path d="M64 54H63V55H64V54Z" fill="#776E76"/>
<path d="M65 54H66V55H65V54Z" fill="#776E76"/>
<path d="M70 54H69V55H70V54Z" fill="#776E76"/>
<path d="M71 54H72V55H71V54Z" fill="#776E76"/>
<path fill-rule="evenodd" clip-rule="evenodd" d="M64 56H63V57H62V58H63V59H62V67H60V69H66V64H65V63H66V62H65V61H66V60H65V59H66V58H65V57H66V56H65V57H64V56ZM64 58H65V59H64V58ZM64 58H63V57H64V58ZM64 59H63V60H64V59ZM64 64V63H63V64H64ZM63 62H64V61H63V62Z" fill="#776E76"/>
<path fill-rule="evenodd" clip-rule="evenodd" d="M70 56H69V57H68V58H69V59H68V69H74V67H72V64H71V63H72V62H71V61H72V60H71V59H72V58H71V57H72V56H71V57H70V56ZM70 58H71V59H70V58ZM70 58H69V57H70V58ZM70 59H69V60H70V59ZM70 64V63H69V64H70ZM69 62H70V61H69V62Z" fill="#776E76"/>
<path d="M82 52H81V53H82V52Z" fill="#776E76"/>
<path d="M84 52H83V53H84V52Z" fill="#776E76"/>
<path d="M85 52H86V53H85V52Z" fill="#776E76"/>
<path d="M78 54H77V55H78V54Z" fill="#776E76"/>
<path d="M83 54H84V55H83V54Z" fill="#776E76"/>
<path d="M86 54H85V55H86V54Z" fill="#776E76"/>
<path d="M77 56H78V57H77V56Z" fill="#776E76"/>
<path d="M77 58H76V57H77V58Z" fill="#776E76"/>
<path d="M78 58V57H79V58H78Z" fill="#776E76"/>
<path fill-rule="evenodd" clip-rule="evenodd" d="M78 59V58H77V59H76V67H78V69H84V67H86V64H85V63H86V62H85V61H86V60H85V59H86V58H85V57H86V56H85V57H84V56H83V57H82V58H83V59H82V66H80V64H79V63H80V62H79V61H80V60H79V59H80V58H79V59H78ZM78 64V63H77V64H78ZM84 59H85V58H84V57H83V58H84V59ZM84 59V60H83V59H84ZM84 64V63H83V64H84ZM78 59H77V60H78V59ZM78 62H77V61H78V62ZM84 62H83V61H84V62Z" fill="#776E76"/>
<path d="M79 57V56H80V57H79Z" fill="#776E76"/>
<path d="M92 52H91V53H92V52Z" fill="#776E76"/>
<path d="M92 54H91V55H92V54Z" fill="#776E76"/>
<path d="M93 54H94V55H93V54Z" fill="#776E76"/>
<path fill-rule="evenodd" clip-rule="evenodd" d="M92 56H91V57H90V58H91V59H90V67H88V69H96V67H94V64H93V63H94V62H93V61H94V60H93V59H94V58H93V57H94V56H93V57H92V56ZM92 58H93V59H92V58ZM92 58H91V57H92V58ZM92 59V60H91V59H92ZM92 64V63H91V64H92ZM91 62H92V61H91V62Z" fill="#776E76"/>
<path d="M102 52H101V53H102V52Z" fill="#776E76"/>
<path d="M104 52H103V53H104V52Z" fill="#776E76"/>
<path d="M107 52H108V53H107V52Z" fill="#776E76"/>
<path d="M110 52H109V53H110V52Z" fill="#776E76"/>
<path d="M101 54H102V55H101V54Z" fill="#776E76"/>
<path d="M104 54H103V55H104V54Z" fill="#776E76"/>
<path d="M107 54H108V55H107V54Z" fill="#776E76"/>
<path d="M110 54H109V55H110V54Z" fill="#776E76"/>
<path d="M101 56H102V57H101V56Z" fill="#776E76"/>
<path d="M101 58H100V57H101V58Z" fill="#776E76"/>
<path d="M102 58V57H103V58H102Z" fill="#776E76"/>
<path fill-rule="evenodd" clip-rule="evenodd" d="M102 59V58H101V59H100V67H98V69H108V67H110V64H109V63H110V62H109V61H110V60H109V59H110V58H109V57H110V56H109V57H108V56H107V57H106V58H107V59H106V65H104V64H103V63H104V62H103V61H104V60H103V59H104V58H103V59H102ZM102 64V63H101V64H102ZM108 59V60H107V59H108ZM108 58H107V57H108V58ZM108 58V59H109V58H108ZM108 64V63H107V64H108ZM102 59V60H101V59H102ZM102 62H101V61H102V62ZM108 62H107V61H108V62Z" fill="#776E76"/>
<path d="M103 57V56H104V57H103Z" fill="#776E76"/>
<path d="M117 52H118V53H117V52Z" fill="#776E76"/>
<path d="M119 52H120V53H119V52Z" fill="#776E76"/>
<path d="M124 52H123V53H124V52Z" fill="#776E76"/>
<path d="M125 52H126V53H125V52Z" fill="#776E76"/>
<path d="M118 54H117V55H118V54Z" fill="#776E76"/>
<path d="M119 54H120V55H119V54Z" fill="#776E76"/>
<path d="M124 54H123V55H124V54Z" fill="#776E76"/>
<path d="M125 54H126V55H125V54Z" fill="#776E76"/>
<path fill-rule="evenodd" clip-rule="evenodd" d="M118 56H117V57H116V58H117V59H116V67H114V69H120V64H119V63H120V62H119V61H120V60H119V59H120V58H119V57H120V56H119V57H118V56ZM118 58H119V59H118V58ZM118 58H117V57H118V58ZM118 59H117V60H118V59ZM118 64V63H117V64H118ZM117 62H118V61H117V62Z" fill="#776E76"/>
<path fill-rule="evenodd" clip-rule="evenodd" d="M124 56H123V57H122V58H123V59H122V69H127V67H126V64H125V63H126V62H125V61H126V60H125V59H126V58H125V57H126V56H125V57H124V56ZM124 58H125V59H124V58ZM124 58H123V57H124V58ZM124 59H123V60H124V59ZM124 64V63H123V64H124ZM123 62H124V61H123V62Z" fill="#776E76"/>
</svg>
