<svg width="14" height="14" viewBox="0 0 14 14" fill="none" xmlns="http://www.w3.org/2000/svg">
<path d="M1 0V1H2V2H3V3H4V4H5V5H6V6H7V4H6V3H5V2H4V1H3V0H1Z" fill="#A49BA3"/>
<path d="M9 7H8V8H9V9H10V8H9V7Z" fill="#A49BA3"/>
<path d="M0 0H1V2H2V3H3V4H4V5H5V6H6V7H4V6H3V5H2V4H1V3H0V0Z" fill="#867D85"/>
<path d="M8 8H7V9H8V10H9V9H8V8Z" fill="#867D85"/>
<path d="M1 1H2V2H1V1Z" fill="#686067"/>
<path d="M3 3H2V2H3V3Z" fill="#686067"/>
<path d="M4 4H3V3H4V4Z" fill="#686067"/>
<path d="M5 5H4V4H5V5Z" fill="#686067"/>
<path d="M5 5H6V6H5V5Z" fill="#686067"/>
<path d="M12 2H11V3H10V4H9V5H8V6H7V7H6V8H5V9H4V10H3V11H2V12H3V11H4V10H5V9H6V8H7V7H8V6H9V5H10V4H11V3H12V2Z" fill="#686067"/>
<path d="M9 8H8V9H9V8Z" fill="#686067"/>
<path d="M11 10H12V11H11V10Z" fill="#686067"/>
<path d="M12 11V12H13V11H12Z" fill="#686067"/>
<path d="M10 11H11V12H10V11Z" fill="#000005"/>
<path d="M11 12V13H12V12H11Z" fill="#000005"/>
<path d="M11 10H10V11H11V12H12V13H13V12H12V11H11V10Z" fill="#322B32"/>
<path d="M11 6H12V9H11V10H10V11H9V12H6V11H7V10H9V9H10V7H11V6Z" fill="#C3BAC2"/>
<path d="M13 12H14V14H12V13H13V12Z" fill="#C3BAC2"/>
</svg>
